<?xml version="1.0" standalone="no"?>
<!DOCTYPE svg PUBLIC "-//W3C//DTD SVG 20010904//EN"
 "http://www.w3.org/TR/2001/REC-SVG-20010904/DTD/svg10.dtd">
<svg version="1.0" xmlns="http://www.w3.org/2000/svg"
 width="237.000000pt" height="237.000000pt" viewBox="0 0 237.000000 237.000000"
 preserveAspectRatio="xMidYMid meet">
<metadata>
Created by potrace 1.14, written by Peter Selinger 2001-2017
</metadata>
<g transform="translate(0.000000,237.000000) scale(0.100000,-0.100000)"
fill="#000000" stroke="none">
<path d="M82 1793 c-18 -9 -44 -35 -57 -58 l-25 -42 0 -500 c0 -354 3 -510 12
-534 15 -45 49 -76 97 -89 27 -7 380 -10 1103 -8 l1063 3 32 24 c63 47 63 48
63 604 0 490 -1 503 -21 536 -23 38 -35 51 -66 68 -17 10 -263 13 -1095 13
-971 0 -1076 -2 -1106 -17z"/>
</g>
</svg>
