<svg xmlns="http://www.w3.org/2000/svg" xmlns:xlink="http://www.w3.org/1999/xlink" width="86.389" height="93.888" viewBox="0 0 86.389 93.888">
  <defs>
    <clipPath id="clip-path">
      <rect id="Rectangle_154" data-name="Rectangle 154" width="86.389" height="93.888" transform="translate(0 0)" fill="none" stroke="#001a34" stroke-width="3"/>
    </clipPath>
  </defs>
  <g id="Mask_Group_14" data-name="Mask Group 14" clip-path="url(#clip-path)">
    <g id="la2" transform="translate(-0.26 10.049)" fill="none">
      <path d="M1.037,21.951C0,20.546-.008,18.934,0,17.279.04,11.761.016,6.243.018.725A.627.627,0,0,1,.724.013Q23.466.012,46.208,0a.759.759,0,0,1,.867.635c1.267,3.859,2.564,7.708,3.852,11.56a1.2,1.2,0,0,1-.658,1.616c-.272.145-.555.269-.826.417a3.242,3.242,0,0,0-1.658,1.923c-1.71,5.566-3.732,11.026-5.745,16.487a9.236,9.236,0,0,0-.209,4.3c.069.648.9,1.147,1.656,1.147h27.89c.728,0,.95.165,1.169.865-.253,1.188-.524,2.372-.753,3.565a2.661,2.661,0,0,0,.315,1.738q1.323,2.562,2.653,5.122c.042.081.085.16.125.242.111.227.263.449.058.7s-.482.216-.749.151c-.9-.223-1.8-.43-2.688-.691a23.474,23.474,0,0,0-5.673-.924A2.277,2.277,0,0,0,63.652,50c-.318.505-.592,1.04-.881,1.564a1.625,1.625,0,0,0-.223,1.258,5.683,5.683,0,0,0,1.7,2.727,1.626,1.626,0,0,0,1.549.238c1.159-.3,2.329-.563,3.479-.891a5.649,5.649,0,0,1,3.265.2,1.949,1.949,0,0,1,1.141,1.109c.147.311.27.634.417.947a1.379,1.379,0,0,0,2.213.647c1.747-1.142,3.488-2.294,5.237-3.434.335-.218.653-.571,1.124-.259a1.811,1.811,0,0,1,.729,1.451.9.9,0,0,1-.559.82c-1.467.7-2.377,2-3.442,3.126a16.358,16.358,0,0,0-2.809,3.517c-.6,1.15-.454,1.822.668,2.494q4.414,2.642,8.839,5.268c.26.155.59.278.575.655s-.325.534-.626.678c-.9.428-1.8.867-2.7,1.288a.87.87,0,0,1-1.3-.514,3.4,3.4,0,0,0-2.1-2.2c-1.38-.6-2.742-1.244-4.119-1.852A3.655,3.655,0,0,1,74.2,67.454a2.483,2.483,0,0,0-2.261-1.26c-.254.007-.509,0-.761-.017a1.729,1.729,0,0,0-1.788,1.414c-.149.876-.306,1.751-.433,2.63a2.234,2.234,0,0,1-.5,1.125c-.556.684-1.115.674-1.6-.078a3.524,3.524,0,0,0-.791-.887,1.61,1.61,0,0,0-1.267-.371c-.9.125-1.8.236-2.7.339a3.412,3.412,0,0,0-2.288,1.34c-1.76,2.14-1.768,1.506-3.528.932-.706-.231-1.391-.53-2.1-.747A4.031,4.031,0,0,1,52.093,70.3a23.537,23.537,0,0,0-2.064-2.732,2.8,2.8,0,0,0-1.508-.809c-.624-.115-1.245-.262-1.873-.346a2.64,2.64,0,0,1-1.924-1.28c-.376-.577-.733-1.168-1.117-1.741a3.168,3.168,0,0,0-2.111-1.5,6.185,6.185,0,0,1-3.2-1.383,1.492,1.492,0,0,0-1.787-.149,7,7,0,0,0-2.053,1.2,1.985,1.985,0,0,0-.613,1.514c.027.452.01.908,0,1.361a.852.852,0,0,1-1.137.893Q25.153,63.6,17.6,61.866a5.549,5.549,0,0,0-2.532-.016q-4.639,1.062-9.283,2.107c-.97.221-1.291-.112-1.034-1.075q.623-2.339,1.242-4.678a7.32,7.32,0,0,0,.259-2.044,28.486,28.486,0,0,1,.667-7.888c.379-1.454.624-2.945.9-4.424a7.953,7.953,0,0,0,.119-1.407c.013-1.725-.01-3.449.012-5.174a5.69,5.69,0,0,0-.512-2.426c-1.1-2.469-2.164-4.953-3.292-7.408a56.652,56.652,0,0,0-3.11-5.485Z" stroke="none"/>
      <path d="M 44.69525146484375 3.001487731933594 C 32.91205215454102 3.012580871582031 20.96388244628906 3.012786865234375 9.393508911132812 3.012985229492188 L 3.018287658691406 3.013214111328125 C 3.018898010253906 3.846511840820312 3.019798278808594 4.679862976074219 3.02069091796875 5.513137817382812 C 3.024856567382812 9.37408447265625 3.029159545898438 13.3664665222168 3.003089904785156 17.29957580566406 C 2.995010375976562 18.50635147094727 3.018844604492188 19.24672698974609 3.23541259765625 19.78237152099609 L 3.607696533203125 20.40093612670898 C 3.805961608886719 20.73036193847656 4.012237548828125 21.06832122802734 4.21173095703125 21.39516067504883 C 5.133079528808594 22.90458679199219 6.085784912109375 24.46541595458984 6.873283386230469 26.18044281005859 C 7.625282287597656 27.81665420532227 8.356590270996094 29.48138809204102 9.063812255859375 31.09130859375 C 9.428932189941406 31.92245483398438 9.806480407714844 32.78189468383789 10.18018341064453 33.62205505371094 C 10.70801544189453 34.80838775634766 10.96737670898438 36.04808044433594 10.95105743408203 37.30634689331055 C 10.93906402587891 38.23982620239258 10.94075012207031 39.20008087158203 10.94235992431641 40.12870788574219 C 10.94369506835938 40.89204025268555 10.94508361816406 41.68137359619141 10.93904113769531 42.46294784545898 C 10.93392181396484 43.18609619140625 10.87825012207031 43.82046890258789 10.76878356933594 44.40292358398438 C 10.71365356445312 44.69594573974609 10.65985107421875 44.98946762084961 10.60602569580078 45.2830810546875 C 10.38278961181641 46.50078582763672 10.15196228027344 47.75994873046875 9.821617126464844 49.02722930908203 C 9.264999389648438 51.16608047485352 9.190696716308594 53.39896392822266 9.250335693359375 56.09281539916992 C 9.271224975585938 57.02609252929688 9.150543212890625 57.99481582641602 8.891548156738281 58.9725341796875 C 8.778305053710938 59.39968109130859 8.665031433105469 59.82696533203125 8.551742553710938 60.25414276123047 C 10.47163391113281 59.81966400146484 12.45133972167969 59.37146759033203 14.39781188964844 58.92566680908203 C 15.01966857910156 58.78359985351562 15.65453338623047 58.71157455444336 16.28475952148438 58.71157455444336 C 16.93897247314453 58.71157455444336 17.60758972167969 58.78932189941406 18.27409362792969 58.94313430786133 C 22.22049713134766 59.8568000793457 26.23625183105469 60.77649688720703 30.11978530883789 61.6658935546875 C 30.40227127075195 61.7305908203125 30.68483734130859 61.79530715942383 30.96736526489258 61.86001586914062 C 31.16560745239258 61.02468490600586 31.5953254699707 60.24599075317383 32.25320053100586 59.53311920166016 C 33.06649398803711 58.65273284912109 33.98313522338867 58.23585510253906 34.65243911743164 57.93148040771484 C 34.81986618041992 57.8553352355957 34.97801208496094 57.78341674804688 35.09403991699219 57.72117614746094 C 35.8043212890625 57.34106826782227 36.58272171020508 57.1401481628418 37.3450927734375 57.1401481628418 C 38.43141174316406 57.1401481628418 39.48145294189453 57.54625701904297 40.29897308349609 58.28113555908203 C 40.64849472045898 58.59452056884766 41.16233444213867 58.79269409179688 42.01731872558594 58.94381332397461 C 43.68447875976562 59.23858642578125 45.05707931518555 60.17324066162109 46.09738540649414 61.72241592407227 C 46.34709548950195 62.09446716308594 46.5787467956543 62.46145629882812 46.80278778076172 62.81636047363281 C 46.94551849365234 63.04248809814453 47.08072280883789 63.25667953491211 47.2166748046875 63.46625137329102 C 47.66792678833008 63.53267669677734 48.08604431152344 63.61697006225586 48.49190521240234 63.69879913330078 C 48.69269180297852 63.73928070068359 48.88234710693359 63.77751922607422 49.06446838378906 63.81116104125977 C 50.24518585205078 64.02867889404297 51.28449249267578 64.58076477050781 52.156494140625 65.45507049560547 C 52.90986633300781 66.21254730224609 53.46599960327148 67.02333068847656 53.95666885375977 67.73867797851562 C 54.14643859863281 68.01535034179688 54.3256950378418 68.27667999267578 54.50493240356445 68.51849365234375 C 54.80982971191406 68.93060302734375 54.97153472900391 68.98004150390625 55.05854797363281 69.00663757324219 C 55.53559875488281 69.15249633789062 55.96607971191406 69.31434631347656 56.38238525390625 69.47087097167969 C 56.67691802978516 69.58161163330078 56.95512008666992 69.68620300292969 57.21321105957031 69.77046966552734 C 57.29236602783203 69.79628753662109 57.36862182617188 69.82212066650391 57.44187927246094 69.84770202636719 C 57.45814514160156 69.82805633544922 57.47484588623047 69.80783081054688 57.49190521240234 69.78707885742188 C 58.65033340454102 68.37576293945312 60.08467864990234 67.56257629394531 61.75749206542969 67.36985778808594 C 62.73378753662109 67.2581787109375 63.59253311157227 67.15028381347656 64.38457489013672 67.03978729248047 C 65.07247924804688 66.94420623779297 65.76168060302734 67.00389099121094 66.40955352783203 67.21278381347656 C 66.41648101806641 67.17214202880859 66.42338562011719 67.13154602050781 66.43026733398438 67.09098815917969 C 66.61672210693359 65.98945617675781 67.19760131835938 64.98664093017578 68.06589508056641 64.26728057861328 C 68.91596984863281 63.56301498413086 69.98931884765625 63.17514801025391 71.08821105957031 63.17514801025391 C 71.16846466064453 63.17514801025391 71.24980163574219 63.17724227905273 71.33367919921875 63.18154907226562 C 71.470703125 63.18876266479492 71.62974548339844 63.19613647460938 71.77042388916016 63.19613647460938 C 71.79844665527344 63.19613647460938 71.82648468017578 63.19585800170898 71.85447692871094 63.19517135620117 C 71.91153717041016 63.19356918334961 71.9678955078125 63.19277572631836 72.02404022216797 63.19277572631836 C 72.47074127197266 63.19277572631836 72.90352630615234 63.24304580688477 73.31851196289062 63.34144973754883 C 73.46475982666016 62.53108215332031 73.789306640625 61.91066360473633 73.93560028076172 61.63101577758789 C 74.05166625976562 61.40920639038086 74.17364501953125 61.1949348449707 74.30046844482422 60.98734664916992 C 73.05056762695312 60.65870666503906 71.99891662597656 59.75058364868164 71.37979888916016 58.4219970703125 C 71.28680419921875 58.22306823730469 71.20655822753906 58.03440856933594 71.13571929931641 57.86785507202148 C 71.12889099121094 57.85179138183594 71.12210083007812 57.83581924438477 71.1153564453125 57.81999206542969 C 70.86190032958984 57.76360321044922 70.65106201171875 57.73661804199219 70.47037506103516 57.73662567138672 C 70.33229064941406 57.73662567138672 70.21376037597656 57.75206756591797 70.09893798828125 57.78473663330078 C 69.26799011230469 58.02169418334961 68.44070434570312 58.22566986083984 67.64067077636719 58.42290878295898 C 67.27730560302734 58.51249694824219 66.90158843994141 58.60513305664062 66.53832244873047 58.69786834716797 C 66.05847930908203 58.82021331787109 65.61053466796875 58.87969589233398 65.16886901855469 58.87969589233398 C 64.09694671630859 58.87969589233398 63.10671997070312 58.51980209350586 62.30548095703125 57.83913421630859 C 61.09939956665039 56.81475067138672 60.21755981445312 55.42857360839844 59.68484115600586 53.72035980224609 C 59.43283843994141 52.91348266601562 59.30810546875 51.63350677490234 60.14453125 50.11870574951172 C 60.21546936035156 49.99015045166016 60.28538513183594 49.86093521118164 60.3553466796875 49.73173522949219 C 60.58631896972656 49.30513381958008 60.82517242431641 48.864013671875 61.11296081542969 48.40677642822266 C 62.14932250976562 46.75918579101562 63.77700042724609 45.85181427001953 65.69617462158203 45.85181427001953 C 65.78274536132812 45.85181427001953 65.87100219726562 45.85366821289062 65.95744323730469 45.85726928710938 C 67.25096893310547 45.91068267822266 68.53014373779297 46.05477905273438 69.78286743164062 46.28758239746094 C 69.6689453125 46.06732940673828 69.55509948730469 45.84709548950195 69.44129180908203 45.62677383422852 C 68.8114013671875 44.40669250488281 68.61117553710938 43.16836166381836 68.84573364257812 41.94850921630859 C 68.90116119384766 41.65899276733398 68.95893096923828 41.37040328979492 69.01802062988281 41.08357620239258 L 43.48558807373047 41.08357620239258 C 42.52345275878906 41.08357620239258 41.54894638061523 40.78893661499023 40.74156188964844 40.25392150878906 C 39.66362762451172 39.53962707519531 38.97286605834961 38.44570922851562 38.84609222412109 37.24973297119141 L 38.83530807495117 37.14723968505859 C 38.67145538330078 35.59121322631836 38.46753311157227 33.65469360351562 39.22429275512695 31.60065460205078 L 39.38022613525391 31.1776008605957 C 41.29470825195312 25.98400115966797 43.27436065673828 20.61360168457031 44.91635894775391 15.26942825317383 C 45.22954177856445 14.25093078613281 45.9549674987793 12.85557556152344 47.63401794433594 11.81091690063477 C 47.48003005981445 11.35092163085938 47.32595443725586 10.89088439941406 47.17190551757812 10.43093490600586 C 46.356689453125 7.996910095214844 45.51816177368164 5.493293762207031 44.69525146484375 3.001487731933594 M 46.20774841308594 0 C 46.71870803833008 0 46.91931915283203 0.1595993041992188 47.07449340820312 0.6350936889648438 C 48.34136199951172 4.494438171386719 49.63814544677734 8.342697143554688 50.92607879638672 12.19538879394531 C 51.17101287841797 12.92801284790039 50.96376037597656 13.44009399414062 50.26769256591797 13.8113899230957 C 49.99614715576172 13.95658874511719 49.71239852905273 14.08072280883789 49.44195938110352 14.22813415527344 C 48.64947891235352 14.660400390625 48.0565071105957 15.26446914672852 47.78385543823242 16.15116119384766 C 46.07362747192383 21.71738815307617 44.05195999145508 27.17721557617188 42.0391731262207 32.63816070556641 C 41.5115852355957 34.07017517089844 41.67894744873047 35.50107955932617 41.82968139648438 36.93641662597656 C 41.89841461181641 37.58481597900391 42.72636032104492 38.08357620239258 43.48558807373047 38.08357620239258 C 52.78258514404297 38.08357620239258 62.0784797668457 38.08357620239258 71.37548065185547 38.08357620239258 C 72.10366821289062 38.08357620239258 72.32534790039062 38.24872207641602 72.5447998046875 38.94809341430664 C 72.29208374023438 40.13628005981445 72.02054595947266 41.32001495361328 71.79221343994141 42.51262664794922 C 71.67585754394531 43.11779022216797 71.82546997070312 43.70523071289062 72.10700225830078 44.25054931640625 C 72.98926544189453 45.95853424072266 73.87596130371094 47.66542816162109 74.76043701171875 49.37232208251953 C 74.80255889892578 49.45322799682617 74.84578704833984 49.53193664550781 74.88569641113281 49.61394882202148 C 74.99653625488281 49.84116363525391 75.14837646484375 50.06282806396484 74.94332122802734 50.31885528564453 C 74.73384094238281 50.58155059814453 74.46117401123047 50.53500366210938 74.19406890869141 50.46958923339844 C 73.29629516601562 50.2468147277832 72.39295959472656 50.03955078125 71.50626373291016 49.77908325195312 C 69.6519775390625 49.23487854003906 67.76551818847656 48.93449401855469 65.83364105224609 48.85470581054688 C 64.84600830078125 48.81369781494141 64.15225219726562 49.20937347412109 63.65237426757812 50.00408172607422 C 63.33426666259766 50.50949478149414 63.06049346923828 51.04373550415039 62.77122497558594 51.56800079345703 C 62.55397415161133 51.96145629882812 62.41653442382812 52.40369415283203 62.54842758178711 52.82598876953125 C 62.87541198730469 53.87450790405273 63.39411926269531 54.82770538330078 64.24755859375 55.55257415771484 C 64.70421600341797 55.94050979614258 65.24509429931641 55.931640625 65.79706573486328 55.7908821105957 C 66.95641326904297 55.49493408203125 68.12574768066406 55.22782897949219 69.27623748779297 54.89974975585938 C 70.39790344238281 54.58053588867188 71.47857666015625 54.77449798583984 72.54149627685547 55.09814834594727 C 73.07572937011719 55.26107025146484 73.44037628173828 55.69777679443359 73.68199920654297 56.20762634277344 C 73.82941436767578 56.51908111572266 73.95243835449219 56.84161376953125 74.09874725341797 57.1541748046875 C 74.56425476074219 58.1539192199707 75.39553070068359 58.39998626708984 76.31214904785156 57.80146789550781 C 78.05894470214844 56.65985488891602 79.80018615722656 55.50713348388672 81.54920196533203 54.36772155761719 C 81.88391876220703 54.14939117431641 82.2020263671875 53.79692077636719 82.67308044433594 54.10839080810547 C 83.19513702392578 54.45418548583984 83.34918975830078 55.00504302978516 83.40239715576172 55.55922698974609 C 83.43565368652344 55.91169738769531 83.14969635009766 56.23423004150391 82.84378814697266 56.37942886352539 C 81.37630462646484 57.07548141479492 80.46632385253906 58.37781524658203 79.40228271484375 59.50502777099609 C 78.37261199951172 60.59786987304688 77.30414581298828 61.66413497924805 76.59369659423828 63.02188110351562 C 75.99183654785156 64.17237854003906 76.13925170898438 64.84403991699219 77.26203918457031 65.51570892333984 C 80.20475769042969 67.27692413330078 83.15522766113281 69.02703094482422 86.10126495361328 70.78379821777344 C 86.36174774169922 70.93897247314453 86.69093322753906 71.06200408935547 86.67652130126953 71.4388427734375 C 86.66322326660156 71.82454681396484 86.35177612304688 71.97308349609375 86.05029296875 72.11717224121094 C 85.14918518066406 72.54497528076172 84.25251770019531 72.98390960693359 83.34808349609375 73.40509796142578 C 82.77837371826172 73.67109680175781 82.22308349609375 73.47713470458984 82.0479736328125 72.89080047607422 C 81.71880340576172 71.78575134277344 80.96621704101562 71.13623809814453 79.9498291015625 70.69400024414062 C 78.56990814208984 70.09328460693359 77.20773315429688 69.45042419433594 75.83113098144531 68.8419189453125 C 75.14394378662109 68.53823852539062 74.60417175292969 68.08046722412109 74.19850921630859 67.45423889160156 C 73.66761016845703 66.63625335693359 72.94271087646484 66.16521453857422 71.93743896484375 66.19403076171875 C 71.68362426757812 66.20066833496094 71.42868041992188 66.19070434570312 71.17598724365234 66.17739868164062 C 70.31365966796875 66.13307952880859 69.53115844726562 66.74709320068359 69.38818359375 67.59168243408203 C 69.23966979980469 68.46729278564453 69.08228302001953 69.34291076660156 68.95481109619141 70.22183990478516 C 68.89276123046875 70.65189361572266 68.72650909423828 71.01321411132812 68.45493316650391 71.34682464599609 C 67.89855194091797 72.03070831298828 67.33992004394531 72.02072143554688 66.85557556152344 71.26924133300781 C 66.635009765625 70.9267578125 66.38006591796875 70.62972259521484 66.06418609619141 70.38254547119141 C 65.69398498535156 70.09104156494141 65.28390502929688 69.94364166259766 64.79733276367188 70.01125335693359 C 63.8995475769043 70.13650512695312 62.99954605102539 70.24733734130859 62.09845352172852 70.35041809082031 C 61.13637542724609 70.46125793457031 60.40486907958984 70.96666717529297 59.81078720092773 71.69044494628906 C 58.05067825317383 73.83069610595703 58.04291534423828 73.19672393798828 56.28284072875977 72.62255859375 C 55.57679748535156 72.39204406738281 54.89183807373047 72.09275817871094 54.18137359619141 71.87553405761719 C 53.28581237792969 71.60176086425781 52.63851928710938 71.03982543945312 52.09321212768555 70.30276489257812 C 51.41377258300781 69.38613128662109 50.84185409545898 68.38748168945312 50.02941513061523 67.57061767578125 C 49.60491943359375 67.14500427246094 49.11057281494141 66.87013244628906 48.52093505859375 66.76150512695312 C 47.89691925048828 66.646240234375 47.27624130249023 66.49994659423828 46.64778518676758 66.41569519042969 C 45.78879928588867 66.29932403564453 45.18030548095703 65.83713531494141 44.72365188598633 65.13554382324219 C 44.34791946411133 64.55806732177734 43.99102783203125 63.96730804443359 43.60642623901367 63.39427947998047 C 43.0943603515625 62.63173675537109 42.44152069091797 62.06534576416016 41.49498748779297 61.89798736572266 C 40.32233428955078 61.69071960449219 39.21839904785156 61.34158706665039 38.29624176025391 60.51474761962891 C 37.78084182739258 60.05146026611328 37.12468338012695 60.03704071044922 36.50954818725586 60.36622619628906 C 35.811279296875 60.74084091186523 35.02099990844727 60.95809555053711 34.45684051513672 61.56880187988281 C 34.0589485168457 61.99994659423828 33.80845260620117 62.47322845458984 33.84392166137695 63.08282852172852 C 33.87050628662109 63.53504180908203 33.8538932800293 63.99057388305664 33.84834671020508 64.44390869140625 C 33.83949661254883 65.13330841064453 33.38062286376953 65.49132537841797 32.71117401123047 65.33725738525391 C 27.67251968383789 64.18235015869141 22.63386535644531 63.03185272216797 17.59744262695312 61.86582946777344 C 16.74732208251953 61.66965484619141 15.91493225097656 61.65636444091797 15.06593322753906 61.85032272338867 C 11.97357177734375 62.55857467651367 8.877906799316406 63.2546272277832 5.783332824707031 63.95733642578125 C 4.813514709472656 64.17789459228516 4.492095947265625 63.84537124633789 4.749237060546875 62.8822135925293 C 5.164863586425781 61.32274627685547 5.578292846679688 59.76325607299805 5.991706848144531 58.20378875732422 C 6.169052124023438 57.53433227539062 6.266586303710938 56.85268402099609 6.251083374023438 56.15995025634766 C 6.192337036132812 53.50650787353516 6.242210388183594 50.86970520019531 6.918304443359375 48.27169418334961 C 7.297370910644531 46.81750869750977 7.542320251464844 45.32674789428711 7.820518493652344 43.84819030761719 C 7.906974792480469 43.38821411132812 7.935783386230469 42.91161346435547 7.939117431640625 42.44166564941406 C 7.952430725097656 40.717041015625 7.929145812988281 38.99241638183594 7.951309204101562 37.26780319213867 C 7.962387084960938 36.41324234008789 7.783943176269531 35.6163215637207 7.439239501953125 34.84157562255859 C 6.340850830078125 32.37213516235352 5.275703430175781 29.88828277587891 4.147384643554688 27.43324279785156 C 3.268455505371094 25.51908111572266 2.121292114257812 23.74901580810547 1.037307739257812 21.94790649414062 L 1.037277221679688 21.95125579833984 C -0.0012664794921875 20.54584121704102 -0.0079193115234375 18.93426895141602 0.0031585693359375 17.27947998046875 C 0.03973388671875 11.76090621948242 0.0164642333984375 6.243438720703125 0.01757049560546875 0.724884033203125 C 0.01757049560546875 0.2512283325195312 0.2529220581054688 0.0140380859375 0.7236099243164062 0.01329803466796875 C 15.88498687744141 0.0121917724609375 31.0463752746582 0.0155181884765625 46.20774841308594 0 Z" stroke="none" fill="#001a34"/>
    </g>
  </g>
</svg>
