<svg xmlns="http://www.w3.org/2000/svg" xmlns:xlink="http://www.w3.org/1999/xlink" width="189.461" height="205.907" viewBox="0 0 189.461 205.907">
  <defs>
    <clipPath id="clip-path">
      <rect id="Rectangle_67" data-name="Rectangle 67" width="189.461" height="205.907" transform="translate(0.455 0.324)" fill="none" stroke="#69be26" stroke-width="8"/>
    </clipPath>
  </defs>
  <g id="Mask_Group_13" data-name="Mask Group 13" transform="translate(-0.455 -0.324)" clip-path="url(#clip-path)">
    <g id="la2" transform="translate(-0.115 22.363)" fill="none">
      <path d="M2.273,48.142C0,45.059-.019,41.525.005,37.9c.08-12.1.029-24.2.032-36.306A1.375,1.375,0,0,1,1.585.029Q51.461.026,101.337,0a1.666,1.666,0,0,1,1.9,1.393c2.778,8.464,5.622,16.9,8.447,25.353a2.623,2.623,0,0,1-1.444,3.544c-.6.318-1.218.591-1.811.914a7.11,7.11,0,0,0-3.636,4.217C101.043,47.629,96.609,59.6,92.2,71.579c-1.157,3.141-.79,6.279-.459,9.427.151,1.422,1.967,2.516,3.632,2.516h61.166c1.6,0,2.083.362,2.564,1.9-.554,2.606-1.15,5.2-1.65,7.817a5.835,5.835,0,0,0,.69,3.811q2.9,5.619,5.819,11.233c.092.177.187.35.275.53.243.5.576.984.126,1.546s-1.057.474-1.643.331c-1.969-.489-3.95-.943-5.895-1.514a51.481,51.481,0,0,0-12.441-2.027,4.994,4.994,0,0,0-4.784,2.521c-.7,1.108-1.3,2.28-1.932,3.43a3.563,3.563,0,0,0-.489,2.759,12.464,12.464,0,0,0,3.726,5.98,3.566,3.566,0,0,0,3.4.523c2.543-.649,5.107-1.235,7.63-1.954a12.389,12.389,0,0,1,7.161.435,4.274,4.274,0,0,1,2.5,2.433c.323.683.593,1.39.914,2.076,1.021,2.193,2.844,2.732,4.854,1.42,3.831-2.5,7.65-5.032,11.485-7.531.734-.479,1.432-1.252,2.465-.569a3.972,3.972,0,0,1,1.6,3.182,1.976,1.976,0,0,1-1.225,1.8c-3.218,1.527-5.214,4.383-7.548,6.855-2.258,2.4-4.6,4.735-6.16,7.713-1.32,2.523-1,4,1.466,5.469q9.681,5.794,19.385,11.554c.571.34,1.293.61,1.262,1.437-.029.846-.712,1.172-1.373,1.488-1.976.938-3.943,1.9-5.926,2.825a1.909,1.909,0,0,1-2.851-1.128,7.458,7.458,0,0,0-4.6-4.818c-3.026-1.317-6.014-2.727-9.033-4.062a8.016,8.016,0,0,1-3.581-3.043,5.446,5.446,0,0,0-4.959-2.764c-.557.015-1.116-.007-1.67-.036a3.792,3.792,0,0,0-3.921,3.1c-.326,1.92-.671,3.841-.95,5.768a4.9,4.9,0,0,1-1.1,2.467c-1.22,1.5-2.445,1.478-3.508-.17a7.728,7.728,0,0,0-1.736-1.945,3.531,3.531,0,0,0-2.778-.814c-1.969.275-3.943.518-5.919.744a7.482,7.482,0,0,0-5.017,2.939c-3.86,4.694-3.877,3.3-7.737,2.044-1.548-.506-3.051-1.162-4.609-1.638a8.841,8.841,0,0,1-4.58-3.449,51.62,51.62,0,0,0-4.526-5.992,6.14,6.14,0,0,0-3.308-1.774c-1.369-.253-2.73-.574-4.108-.758a5.791,5.791,0,0,1-4.22-2.808c-.824-1.266-1.607-2.562-2.45-3.819A6.947,6.947,0,0,0,91,135.749a13.564,13.564,0,0,1-7.015-3.034,3.272,3.272,0,0,0-3.918-.326c-1.531.822-3.265,1.3-4.5,2.637a4.354,4.354,0,0,0-1.344,3.32c.058.992.022,1.991.01,2.985a1.868,1.868,0,0,1-2.494,1.959q-16.576-3.8-33.146-7.613a12.169,12.169,0,0,0-5.552-.034q-10.173,2.33-20.358,4.621c-2.127.484-2.832-.246-2.268-2.358q1.367-5.13,2.725-10.26a16.054,16.054,0,0,0,.569-4.482c-.129-5.819-.019-11.6,1.463-17.3.831-3.189,1.369-6.459,1.979-9.7a17.442,17.442,0,0,0,.26-3.085c.029-3.782-.022-7.565.027-11.347a12.478,12.478,0,0,0-1.123-5.321C13.9,71,11.569,65.548,9.094,60.164a124.245,124.245,0,0,0-6.821-12.03Z" stroke="none"/>
      <path d="M 96.99289703369141 8.00152587890625 L 8.0411376953125 8.028945922851562 L 8.043777465820312 12.09329223632812 C 8.0531005859375 20.71173095703125 8.062286376953125 29.3297119140625 8.005157470703125 37.94945526123047 C 7.986663818359375 40.71354675292969 8.0242919921875 42.45783233642578 9.127655029296875 44.00898742675781 L 10.4476318359375 46.1815185546875 C 12.48968505859375 49.52704620361328 14.601318359375 52.98648834228516 16.3631591796875 56.82339477539062 C 18.00816345214844 60.40267181396484 19.59297180175781 64.00936126708984 21.17762756347656 67.61660766601562 L 23.62272644042969 73.15951538085938 C 24.86431884765625 75.95017242431641 25.47434997558594 78.86945343017578 25.43588256835938 81.83535766601562 L 25.40959167480469 93.13592529296875 C 25.39894104003906 94.64195251464844 25.28909301757812 96.16783142089844 25.01171875 97.64333343505859 L 24.65597534179688 99.56716918945312 C 24.14479064941406 102.3556442260742 23.62580871582031 105.1462097167969 22.91316223144531 107.8800811767578 C 21.73381042480469 112.4119567871094 21.57752990722656 117.197265625 21.70571899414062 122.9859848022461 C 21.75456237792969 125.1660461425781 21.47412109375 127.4236145019531 20.86253356933594 129.7323913574219 L 20.72821044921875 130.2381896972656 L 31.25778198242188 127.8457336425781 C 34.24520874023438 127.1631927490234 37.31578063964844 127.1740570068359 40.39596557617188 127.8849563598633 L 66.95071411132812 133.9881439208984 C 67.47376251220703 132.5706024169922 68.33113098144531 131.0711364746094 69.68984985351562 129.5989227294922 C 71.66793823242188 127.4575805664062 73.91800689697266 126.4342651367188 76.29353332519531 125.3363647460938 C 78.05666351318359 124.3928604125977 79.99550628662109 123.894172668457 81.90047454833984 123.894172668457 C 84.63409423828125 123.894172668457 87.27422332763672 124.9141082763672 89.32709503173828 126.7594223022461 C 89.71856689453125 127.1104278564453 90.38906860351562 127.5170135498047 92.39463043212891 127.8715209960938 C 96.44587707519531 128.5878601074219 99.76972198486328 130.8419189453125 102.2748489379883 134.5725860595703 L 104.4056243896484 137.8860168457031 C 105.1483993530273 138.0105895996094 105.8884201049805 138.1570434570312 106.6277847290039 138.3061065673828 L 107.8595352172852 138.5479278564453 C 110.7380065917969 139.0781097412109 113.2691879272461 140.42138671875 115.3909378051758 142.5486145019531 C 116.9648132324219 144.131103515625 118.2511901855469 145.9298553466797 119.5030975341797 147.7549896240234 L 121.1635055541992 149.9808349609375 C 122.1720657348633 150.2891998291016 123.1626892089844 150.6559906005859 124.1514434814453 151.0277404785156 L 125.5240097045898 151.5231628417969 C 128.8634490966797 147.7996063232422 132.635498046875 146.6427154541016 135.2782287597656 146.3382720947266 C 137.1889038085938 146.1196746826172 139.0973205566406 145.8849182128906 141.0047607421875 145.6188354492188 L 142.0572204589844 145.5070190429688 L 142.6106567382812 145.5070190429688 C 143.2687225341797 145.5070190429688 143.920654296875 145.5640716552734 144.5615081787109 145.6763305664062 C 145.9730987548828 140.6563873291016 150.60009765625 137.1306610107422 156.5071868896484 137.1451416015625 L 157.9553527832031 137.1682739257812 C 158.5659790039062 137.1682739257812 159.1660919189453 137.2064208984375 159.7538146972656 137.2819213867188 C 160.0226440429688 136.369384765625 160.3973999023438 135.4468688964844 160.880859375 134.5204772949219 C 158.4911499023438 133.4249877929688 156.511474609375 131.4249877929688 155.260009765625 128.7372436523438 L 154.9824523925781 128.1061248779297 C 154.7069854736328 128.0823211669922 154.4258117675781 128.0779876708984 154.1230316162109 128.0946350097656 C 152.3224487304688 128.6081390380859 150.5023498535156 129.0586700439453 148.6824951171875 129.5073547363281 L 146.275634765625 130.107666015625 C 145.1071319580078 130.4056396484375 144.0098876953125 130.5504913330078 142.9211883544922 130.5504913330078 C 140.2289123535156 130.5504913330078 137.7392272949219 129.6443939208984 135.7217864990234 127.9305801391602 C 132.868408203125 125.507080078125 130.7875366210938 122.2450180053711 129.5380401611328 118.2383270263672 C 128.9028778076172 116.2046737670898 128.5818481445312 112.9905853271484 131.1155700683594 108.3903961181641 C 131.6626586914062 107.3799896240234 132.2146911621094 106.3725128173828 132.8235931396484 105.4051132202148 C 135.3658447265625 101.3634185791016 139.3627319335938 99.13853454589844 144.7091979980469 99.15074157714844 C 146.668212890625 99.23164367675781 148.6131591796875 99.40526580810547 150.5350494384766 99.670166015625 C 149.416259765625 97.05792236328125 149.0891876220703 94.33333587646484 149.5896606445312 91.73076629638672 C 149.6029968261719 91.66106414794922 149.6164245605469 91.59128570556641 149.6298980712891 91.52161407470703 L 95.36728668212891 91.52161407470703 C 89.44478607177734 91.52161407470703 84.35516357421875 87.27289581298828 83.75581359863281 81.61664581298828 C 83.38103485107422 78.05748748779297 82.91462707519531 73.62802124023438 85.03075408935547 67.88473510742188 C 89.22275543212891 56.51264190673828 93.55750274658203 44.75336456298828 97.14719390869141 33.06999206542969 C 97.84545135498047 30.79925537109375 99.38393402099609 27.75860595703125 102.7734146118164 25.32536315917969 L 102.1049423217773 23.32823181152344 C 100.3951873779297 18.223388671875 98.68567657470703 13.119140625 96.99289703369141 8.00152587890625 M 101.337287902832 -1.52587890625e-05 C 102.4578475952148 -1.52587890625e-05 102.8978500366211 0.3500213623046875 103.2381286621094 1.392837524414062 C 106.0165328979492 9.856796264648438 108.8605346679688 18.29649353027344 111.6851272583008 26.74589538574219 C 112.2223129272461 28.35261535644531 111.7677536010742 29.47564697265625 110.2412185668945 30.28996276855469 C 109.6456604003906 30.6083984375 109.0234069824219 30.88064575195312 108.4302825927734 31.20391845703125 C 106.6922836303711 32.15191650390625 105.3918151855469 33.47669982910156 104.7938461303711 35.42133331298828 C 101.0431594848633 47.62870788574219 96.60941314697266 59.60270690917969 92.19512939453125 71.57917022705078 C 91.03806304931641 74.71976470947266 91.40512847900391 77.85789489746094 91.73568725585938 81.00576782226562 C 91.88641357421875 82.427734375 93.70219421386719 83.52161407470703 95.36728668212891 83.52161407470703 C 115.7566604614258 83.52161407470703 136.1436004638672 83.52161407470703 156.5329742431641 83.52161407470703 C 158.1299743652344 83.52161407470703 158.6161651611328 83.88379669189453 159.0974426269531 85.41761016845703 C 158.5432281494141 88.02339172363281 157.9476928710938 90.61948394775391 157.4469757080078 93.2349853515625 C 157.1917572021484 94.56220245361328 157.5198822021484 95.85051727294922 158.1372833251953 97.04645538330078 C 160.0722198486328 100.7922973632812 162.0168151855469 104.5356750488281 163.9566040039062 108.2790832519531 C 164.0489807128906 108.4565124511719 164.1437530517578 108.6291427612305 164.2312927246094 108.8090209960938 C 164.4743499755859 109.3072967529297 164.807373046875 109.79345703125 164.3576965332031 110.3549499511719 C 163.8982543945312 110.9310760498047 163.3002777099609 110.8289794921875 162.7144775390625 110.685546875 C 160.7455596923828 110.1969604492188 158.7644348144531 109.7423934936523 156.8198547363281 109.1711730957031 C 152.7531280517578 107.9776763916016 148.6159362792969 107.3188934326172 144.3790893554688 107.1439208984375 C 142.21337890625 107.0539474487305 140.6916351318359 107.9217376708984 139.5953521728516 109.6646118164062 C 138.8976898193359 110.7730484008789 138.2972869873047 111.9447021484375 137.6628723144531 113.0944519042969 C 137.1864318847656 113.9573669433594 136.885009765625 114.9272308349609 137.1742553710938 115.8533630371094 C 137.8913879394531 118.1528930664062 139.0289764404297 120.2433929443359 140.9006652832031 121.8331146240234 C 141.9021301269531 122.6838684082031 143.0883483886719 122.6644287109375 144.2989044189453 122.3557357788086 C 146.8415069580078 121.706672668457 149.4059753417969 121.1208953857422 151.9291229248047 120.4013595581055 C 154.3890228271484 119.7013092041016 156.7590637207031 120.1266708374023 159.0901947021484 120.8364868164062 C 160.2618103027344 121.1938018798828 161.0615386962891 122.1515502929688 161.5914764404297 123.2697067260742 C 161.9147491455078 123.9527359008789 162.1845703125 124.6601104736328 162.5054473876953 125.3455810546875 C 163.5263519287109 127.5381469726562 165.3494415283203 128.0777740478516 167.3596954345703 126.7651748657227 C 171.1905975341797 124.2614593505859 175.0093536376953 121.7334594726562 178.8451232910156 119.2345809936523 C 179.5791931152344 118.7557373046875 180.2768402099609 117.9827728271484 181.3099060058594 118.6658325195312 C 182.4548492431641 119.4242095947266 182.7926940917969 120.6322937011719 182.9094085693359 121.8476715087891 C 182.9823150634766 122.6206741333008 182.3551635742188 123.3280181884766 181.6842803955078 123.646484375 C 178.4659423828125 125.1730194091797 176.4702606201172 128.0291442871094 174.1366882324219 130.5012664794922 C 171.8785400390625 132.8980102539062 169.5352478027344 135.2364196777344 167.9771270751953 138.214111328125 C 166.6571960449219 140.7373046875 166.9804992675781 142.2103271484375 169.44287109375 143.6833953857422 C 175.8966217041016 147.5459289550781 182.3673400878906 151.3840789794922 188.8283538818359 155.2368927001953 C 189.3995971679688 155.5772094726562 190.1215362548828 155.8470153808594 190.0899353027344 156.6734924316406 C 190.0607604980469 157.5193939208984 189.3777160644531 157.8451080322266 188.7165374755859 158.1611480712891 C 186.7403106689453 159.099365234375 184.7738189697266 160.0619812011719 182.7902526855469 160.9856719970703 C 181.5408477783203 161.5690765380859 180.3230285644531 161.1436767578125 179.9390106201172 159.8578033447266 C 179.2170715332031 157.4342956542969 177.5665588378906 156.0098571777344 175.3375396728516 155.0399932861328 C 172.3111877441406 153.7225189208984 169.3237915039062 152.3126373291016 166.3047485351562 150.9781494140625 C 164.7976531982422 150.3121185302734 163.6138763427734 149.3082122802734 162.7242279052734 147.9347991943359 C 161.5598754882812 146.1408996582031 159.9700317382812 145.1078186035156 157.7654113769531 145.1710205078125 C 157.2087707519531 145.1855773925781 156.6496887207031 145.1636962890625 156.0954742431641 145.1345520019531 C 154.2045135498047 145.037353515625 152.4881896972656 146.3839569091797 152.1746215820312 148.2362060546875 C 151.8489074707031 150.1565551757812 151.5037231445312 152.0768280029297 151.2241821289062 154.0044555664062 C 151.0881042480469 154.9476165771484 150.7234802246094 155.7400207519531 150.1279144287109 156.4716796875 C 148.9076690673828 157.9714813232422 147.6825714111328 157.9496154785156 146.6203155517578 156.3015441894531 C 146.1365966796875 155.5504302978516 145.5774993896484 154.8989868164062 144.8847198486328 154.3569183349609 C 144.0728454589844 153.7176055908203 143.1734619140625 153.3943328857422 142.1063537597656 153.5426177978516 C 140.1374359130859 153.8172912597656 138.1636352539062 154.0603637695312 136.1874084472656 154.2864227294922 C 134.0774688720703 154.5295104980469 132.4731597900391 155.6379547119141 131.1702880859375 157.2252655029297 C 127.3101806640625 161.9190826416016 127.2931442260742 160.5287017822266 123.4330978393555 159.2695159912109 C 121.8846893310547 158.7639617919922 120.3824691772461 158.1076049804688 118.824348449707 157.6312103271484 C 116.8602828979492 157.0307922363281 115.4407196044922 155.7983856201172 114.2447814941406 154.1819305419922 C 112.7546920776367 152.1716461181641 111.5004119873047 149.9815216064453 109.7186584472656 148.1900177001953 C 108.7876586914062 147.2566070556641 107.7035369873047 146.6537628173828 106.4103775024414 146.4155731201172 C 105.0418167114258 146.1627655029297 103.6805953979492 145.8419189453125 102.3023452758789 145.6571655273438 C 100.4185028076172 145.4019165039062 99.08400726318359 144.3883056640625 98.08250427246094 142.849609375 C 97.25846862792969 141.5831756591797 96.47575378417969 140.2875823974609 95.63228607177734 139.0308532714844 C 94.50928497314453 137.3584899902344 93.07753753662109 136.1163635253906 91.00166320800781 135.7492980957031 C 88.42987823486328 135.2947387695312 86.00885009765625 134.5290832519531 83.98644256591797 132.7156982421875 C 82.85609436035156 131.6996459960938 81.41709899902344 131.6680450439453 80.06800079345703 132.3899536132812 C 78.53662872314453 133.2115478515625 76.80347442626953 133.6880187988281 75.56622314453125 135.0273590087891 C 74.69356536865234 135.9729309082031 74.14418792724609 137.0108642578125 74.22200012207031 138.3477630615234 C 74.28031921386719 139.3395538330078 74.24388122558594 140.3385772705078 74.231689453125 141.3327941894531 C 74.21228790283203 142.8447265625 73.20590972900391 143.6298980712891 71.73775482177734 143.2920227050781 C 60.68740844726562 140.7591400146484 49.63710021972656 138.2359924316406 38.59159851074219 135.6788024902344 C 36.72718811035156 135.2485504150391 34.90170288085938 135.2193603515625 33.03968811035156 135.644775390625 C 26.2578125 137.1980438232422 19.46865844726562 138.7245483398438 12.68194580078125 140.2656707763672 C 10.55496215820312 140.7493896484375 9.850067138671875 140.0201416015625 10.41400146484375 137.9078369140625 C 11.32553100585938 134.4877319335938 12.23222351074219 131.0675811767578 13.138916015625 127.6474914550781 C 13.52781677246094 126.1792984008789 13.74176025390625 124.6843566894531 13.70771789550781 123.1651458740234 C 13.57887268066406 117.3458633422852 13.68827819824219 111.5630187988281 15.17103576660156 105.8652954101562 C 16.00238037109375 102.6761169433594 16.53956604003906 99.40670776367188 17.14968872070312 96.16404724121094 C 17.33930969238281 95.15526580810547 17.40249633789062 94.11001586914062 17.4097900390625 93.07939147949219 C 17.43896484375 89.29708099365234 17.38790893554688 85.51480102539062 17.43653869628906 81.73252105712891 C 17.46084594726562 79.85836029052734 17.06947326660156 78.11064147949219 16.31350708007812 76.41151428222656 C 13.90463256835938 70.99573516845703 11.56863403320312 65.54839324951172 9.094100952148438 60.16420745849609 C 7.166473388671875 55.96623992919922 4.650634765625 52.08426666259766 2.2733154296875 48.13426971435547 L 2.27325439453125 48.14160919189453 C -0.004364013671875 45.05936431884766 -0.0189666748046875 41.52501678466797 0.005340576171875 37.89585876464844 C 0.0855712890625 25.79298400878906 0.0345001220703125 13.69258117675781 0.0369415283203125 1.589736938476562 C 0.0369415283203125 0.5509796142578125 0.553070068359375 0.030792236328125 1.585342407226562 0.0291748046875 C 34.83596801757812 0.0267333984375 68.08663177490234 0.0340118408203125 101.337287902832 -1.52587890625e-05 Z" stroke="none" fill="#69be26"/>
    </g>
  </g>
</svg>
