<svg xmlns="http://www.w3.org/2000/svg" width="288.955" height="245.105" viewBox="0 0 288.955 245.105">
  <g id="la2" transform="translate(-0.001)" fill="none">
    <path d="M3.455,73.18C-.007,68.495-.03,63.122.007,57.606c.122-18.4.044-36.791.048-55.189A2.091,2.091,0,0,1,2.409.044Q78.226.039,154.042,0a2.532,2.532,0,0,1,2.89,2.117c4.223,12.866,8.547,25.7,12.84,38.539.817,2.442.126,4.15-2.195,5.387-.905.484-1.851.9-2.753,1.389a10.809,10.809,0,0,0-5.528,6.411C153.6,72.4,146.855,90.6,140.145,108.808c-1.759,4.774-1.2,9.544-.7,14.329.229,2.162,2.989,3.824,5.52,3.824h92.978c2.428,0,3.167.551,3.9,2.882-.842,3.961-1.748,7.907-2.509,11.883a8.87,8.87,0,0,0,1.049,5.794q4.412,8.541,8.846,17.075c.14.27.285.532.418.806.369.757.876,1.5.192,2.35-.7.876-1.607.721-2.5.5-2.993-.743-6-1.434-8.96-2.3a78.257,78.257,0,0,0-18.911-3.082A7.591,7.591,0,0,0,212.2,166.7c-1.06,1.685-1.973,3.466-2.938,5.214a5.416,5.416,0,0,0-.743,4.194,18.946,18.946,0,0,0,5.664,9.09c1.522,1.293,3.326,1.264,5.166.794,3.865-.987,7.763-1.877,11.6-2.971,3.739-1.064,7.342-.418,10.886.661a6.5,6.5,0,0,1,3.8,3.7c.491,1.038.9,2.114,1.389,3.156,1.552,3.333,4.323,4.153,7.379,2.158,5.823-3.806,11.628-7.649,17.459-11.447,1.116-.728,2.176-1.9,3.747-.865,1.74,1.153,2.254,2.989,2.431,4.837a3,3,0,0,1-1.862,2.734c-4.892,2.32-7.926,6.662-11.473,10.42-3.433,3.643-6.995,7.2-9.363,11.724-2.006,3.835-1.515,6.075,2.228,8.314q14.715,8.807,29.468,17.563c.868.517,1.966.927,1.918,2.184-.044,1.286-1.083,1.781-2.088,2.261-3,1.426-5.993,2.889-9.009,4.294-1.9.887-3.75.24-4.334-1.715-1.1-3.684-3.606-5.849-6.995-7.324-4.6-2-9.141-4.146-13.731-6.174a12.185,12.185,0,0,1-5.443-4.626,8.278,8.278,0,0,0-7.538-4.2c-.846.022-1.7-.011-2.538-.055a5.765,5.765,0,0,0-5.96,4.715c-.5,2.919-1.02,5.838-1.445,8.768a7.447,7.447,0,0,1-1.666,3.75c-1.855,2.28-3.717,2.247-5.332-.259a11.747,11.747,0,0,0-2.638-2.956,5.368,5.368,0,0,0-4.223-1.238c-2.993.418-5.993.787-9,1.131A11.373,11.373,0,0,0,199.391,239c-5.868,7.135-5.894,5.022-11.761,3.107-2.354-.769-4.637-1.766-7.006-2.49a13.439,13.439,0,0,1-6.961-5.243c-2.265-3.056-4.172-6.385-6.88-9.108a9.334,9.334,0,0,0-5.029-2.7c-2.08-.384-4.15-.872-6.245-1.153a8.8,8.8,0,0,1-6.415-4.268c-1.253-1.925-2.442-3.895-3.725-5.8a10.561,10.561,0,0,0-7.039-4.988c-3.909-.691-7.59-1.855-10.664-4.611a4.974,4.974,0,0,0-5.956-.5c-2.328,1.249-4.962,1.973-6.843,4.009a6.619,6.619,0,0,0-2.043,5.047c.089,1.508.033,3.026.015,4.538a2.839,2.839,0,0,1-3.791,2.978q-25.2-5.775-50.385-11.573a18.5,18.5,0,0,0-8.439-.052q-15.464,3.542-30.946,7.024c-3.233.735-4.3-.373-3.447-3.584q2.078-7.8,4.142-15.6a24.4,24.4,0,0,0,.865-6.814c-.2-8.846-.03-17.636,2.224-26.3,1.264-4.848,2.08-9.818,3.008-14.747a26.513,26.513,0,0,0,.4-4.689c.044-5.749-.033-11.5.041-17.248a18.968,18.968,0,0,0-1.707-8.088c-3.662-8.233-7.213-16.513-10.974-24.7-2.93-6.381-6.755-12.282-10.368-18.287Z" stroke="none"/>
    <path d="M 150.4464416503906 8.003555297851562 C 110.7062835693359 8.041915893554688 70.96415710449219 8.042587280273438 31.22402954101562 8.043289184570312 L 8.059112548828125 8.04412841796875 L 8.06585693359375 18.38102722167969 C 8.079986572265625 31.47348022460938 8.09405517578125 44.5650634765625 8.007232666015625 57.65911865234375 C 7.97332763671875 62.72479248046875 8.0826416015625 65.97602844238281 10.30935668945312 69.04365539550781 L 12.32949829101562 72.36869812011719 C 15.370849609375 77.35137939453125 18.51577758789062 82.50370788574219 21.09228515625 88.11479187011719 C 23.5826416015625 93.53343200683594 25.98178100585938 98.99369812011719 28.38076782226562 104.4547424316406 L 32.10671997070312 112.9011993408203 C 33.748046875 116.5903015136719 34.55459594726562 120.4406585693359 34.50390625 124.3444290161133 C 34.4635009765625 127.490837097168 34.46926879882812 130.6372375488281 34.4747314453125 133.7836608886719 L 34.46372985839844 141.5464324951172 C 34.44931030273438 143.5884399414062 34.30659484863281 145.6578826904297 33.93063354492188 147.6583862304688 L 33.38609313964844 150.602783203125 C 32.62750244140625 154.7406616210938 31.86087036132812 158.8822937011719 30.80294799804688 162.9406585693359 C 28.88909912109375 170.2950134277344 28.63186645507812 177.8960571289062 28.83441162109375 187.0442504882812 C 28.89987182617188 189.9676513671875 28.5198974609375 193.0096130371094 27.70468139648438 196.0870208740234 L 25.7235107421875 203.5547027587891 L 48.44108581542969 198.3946533203125 C 52.372314453125 197.4964904785156 56.39987182617188 197.5130310058594 60.46681213378906 198.4515228271484 L 99.94540405273438 207.5257873535156 L 104.8634033203125 208.7013244628906 C 105.1377410888672 205.4805908203125 106.5204772949219 202.5037841796875 108.9911804199219 199.8267059326172 C 111.4284515380859 197.1883392333984 114.2718200683594 195.8952026367188 116.3479461669922 194.9510192871094 C 116.8805847167969 194.708740234375 117.4155426025391 194.4718322753906 117.9363098144531 194.1924285888672 C 120.0444488525391 193.0643920898438 122.2514953613281 192.4923858642578 124.4962310791016 192.4923858642578 C 127.6682281494141 192.4923858642578 130.6139984130859 193.6332092285156 133.0077667236328 195.7848815917969 C 134.4710388183594 197.0968933105469 136.4794464111328 197.9013366699219 139.7239532470703 198.4747924804688 C 144.7256317138672 199.3592071533203 148.8597717285156 202.1874694824219 152.0125427246094 206.882568359375 C 152.8083648681641 208.0682525634766 153.5712738037109 209.2749328613281 154.3329467773438 210.4815216064453 L 155.7994537353516 212.7817535400391 C 156.226318359375 213.4376220703125 156.3759918212891 213.4578857421875 156.5720825195312 213.4844360351562 C 158.1437225341797 213.6951599121094 159.703369140625 214.0037078857422 161.2614440917969 214.3178405761719 L 163.2030029296875 214.6987457275391 C 166.7319946289062 215.3488006591797 169.8421325683594 217.0026550292969 172.4549102783203 219.6222991943359 C 174.8380432128906 222.0184783935547 176.6373596191406 224.6416168212891 178.2248229980469 226.9560241699219 C 178.8364868164062 227.8477935791016 179.4466857910156 228.740478515625 180.0940856933594 229.6139831542969 C 181.3324584960938 231.2877960205078 182.2047729492188 231.7330169677734 182.9634094238281 231.9649353027344 C 184.4133148193359 232.408203125 185.8366394042969 232.9376983642578 187.2580413818359 233.4721069335938 C 188.2057800292969 233.8284301757812 189.1524963378906 234.1871643066406 190.1110534667969 234.5001068115234 C 190.8511047363281 234.7415313720703 191.5138549804688 234.9842224121094 192.1152191162109 235.2165222167969 C 192.4175415039062 234.8699951171875 192.7784118652344 234.4444885253906 193.2076721191406 233.9225158691406 C 196.728759765625 229.6327972412109 201.067138671875 227.1636047363281 206.1086730957031 226.5827026367188 C 209.0471801757812 226.2465667724609 211.9821319580078 225.8854370117188 214.914306640625 225.4763336181641 L 216.2288208007812 225.3460693359375 L 216.7819061279297 225.3460693359375 C 218.9223480224609 225.3460693359375 221.0145263671875 225.8747711181641 222.9376373291016 226.8859710693359 C 222.9908142089844 226.5756378173828 223.0441589355469 226.2651977539062 223.0975036621094 225.9549255371094 L 223.4322814941406 223.9986572265625 C 224.5492706298828 217.4005737304688 230.2499084472656 212.6111755371094 237.7002716064453 212.6301574707031 L 240.1073150634766 212.6703491210938 C 242.263916015625 212.6703491210938 244.3123016357422 213.0670471191406 246.2040710449219 213.8333435058594 C 246.221435546875 211.4846801757812 246.8981475830078 208.9806823730469 248.2532348632812 206.390380859375 C 249.1186370849609 204.7364807128906 250.0966949462891 203.2039337158203 251.135498046875 201.7696533203125 C 246.2868347167969 201.7259521484375 242.044677734375 198.7967529296875 239.7783203125 193.9292907714844 L 238.4933319091797 191.0467224121094 C 236.1135559082031 190.4072570800781 234.5525817871094 190.3136291503906 233.1406860351562 190.7155151367188 C 230.4517669677734 191.4822998046875 227.7334594726562 192.154296875 225.0157775878906 192.8243408203125 L 221.3252716064453 193.7448425292969 C 219.889404296875 194.1110687255859 218.5576324462891 194.2891082763672 217.2538604736328 194.2891082763672 C 214.1614532470703 194.2891082763672 211.3083190917969 193.2539367675781 209.0036315917969 191.2960662841797 C 205.2761840820312 188.1301574707031 202.5432739257812 183.8217468261719 200.8818054199219 178.4939270019531 C 200.1578979492188 176.1763000488281 199.8088989257812 172.4826965332031 202.2562713623047 168.0500183105469 L 202.9669494628906 166.7455749511719 C 203.7552795410156 165.2897033691406 204.5485534667969 163.8367462158203 205.4264984130859 162.4417419433594 C 208.5019073486328 157.5525207519531 213.32666015625 154.8575134277344 219.8002319335938 154.8763427734375 C 225.4356994628906 155.1091003417969 230.9864501953125 155.8694763183594 236.3577880859375 157.1421203613281 L 233.2753143310547 151.1902923583984 C 231.3863220214844 147.5312957763672 230.7817687988281 143.8389739990234 231.4772338867188 140.2223815917969 C 231.8138122558594 138.4642028808594 232.1775512695312 136.7118225097656 232.5518798828125 134.9612426757812 L 144.9671325683594 134.9612426757812 C 138.9152221679688 134.9612426757812 132.2199554443359 130.8537902832031 131.4544982910156 123.6299285888672 C 130.9027252197266 118.3898391723633 130.2773132324219 112.4506072998047 132.6387634277344 106.0408782958984 L 133.1579132080078 104.632568359375 C 139.5499114990234 87.29234313964844 146.1595458984375 69.36180114746094 151.6498107910156 51.49270629882812 C 153.1173553466797 46.72010803222656 156.2609558105469 42.9913330078125 160.9956359863281 40.40870666503906 L 161.2153930664062 40.29705810546875 L 159.1519927978516 34.13243103027344 C 156.2377471923828 25.43116760253906 153.3238525390625 16.73092651367188 150.4464416503906 8.003555297851562 M 154.0421752929688 -3.0517578125e-05 C 155.7455444335938 -3.0517578125e-05 156.4143676757812 0.532073974609375 156.9316864013672 2.11724853515625 C 161.1550903320312 14.98333740234375 165.478271484375 27.81246948242188 169.7719116210938 40.65643310546875 C 170.5885009765625 43.09884643554688 169.8974914550781 44.80592346191406 167.5770416259766 46.04379272460938 C 166.6717681884766 46.52780151367188 165.7258148193359 46.94166564941406 164.82421875 47.43305969238281 C 162.1823120117188 48.87416076660156 160.2054595947266 50.88792419433594 159.2964935302734 53.84397888183594 C 153.5950469970703 72.40043640136719 146.8553161621094 90.60211181640625 140.1451416015625 108.8075714111328 C 138.3863220214844 113.5815277099609 138.9442749023438 118.3517913818359 139.44677734375 123.1368865966797 C 139.6759033203125 125.2984771728516 142.4360504150391 126.9612503051758 144.9671325683594 126.9612503051758 C 175.9610900878906 126.9612503051758 206.9512634277344 126.9612503051758 237.9451751708984 126.9612503051758 C 240.3728179931641 126.9612503051758 241.1118621826172 127.5117950439453 241.8434448242188 129.8433380126953 C 241.0009460449219 133.8044281005859 240.0956726074219 137.7507019042969 239.3345489501953 141.7265625 C 238.9465942382812 143.7440643310547 239.4453582763672 145.7024230957031 240.3839111328125 147.5203857421875 C 243.3251800537109 153.2144317626953 246.2811889648438 158.9047546386719 249.2298126220703 164.5951232910156 C 249.3702239990234 164.8648376464844 249.5143127441406 165.127197265625 249.6473693847656 165.4006042480469 C 250.0168609619141 166.1581115722656 250.5230865478516 166.8971099853516 249.8394927978516 167.7506561279297 C 249.1411437988281 168.6263885498047 248.2321929931641 168.4712066650391 247.3416748046875 168.2531585693359 C 244.3487243652344 167.5104675292969 241.3372192382812 166.8195190429688 238.3812255859375 165.9511566162109 C 232.1994476318359 164.1369323730469 225.9104919433594 163.1355285644531 219.4700927734375 162.8695220947266 C 216.1777038574219 162.7328491210938 213.8647155761719 164.0519409179688 212.1982727050781 166.7012481689453 C 211.1378173828125 168.3861999511719 210.22509765625 170.1672058105469 209.2607269287109 171.9149322509766 C 208.5364990234375 173.2266540527344 208.0782775878906 174.7009735107422 208.5180053710938 176.1087951660156 C 209.6080474853516 179.6042938232422 211.3373107910156 182.7820129394531 214.1824951171875 185.1985626220703 C 215.7048187255859 186.4918365478516 217.5079650878906 186.4622802734375 219.34814453125 185.9930267333984 C 223.213134765625 185.0063781738281 227.1114044189453 184.1159362792969 230.9468078613281 183.0222015380859 C 234.6861877441406 181.9580078125 238.2888488769531 182.6046600341797 241.8324127197266 183.6836090087891 C 243.6134033203125 184.2267913818359 244.8290405273438 185.6826171875 245.6345825195312 187.3823394775391 C 246.1260070800781 188.420654296875 246.5361785888672 189.4958801269531 247.0239105224609 190.5378875732422 C 248.5758209228516 193.8707885742188 251.3470764160156 194.6911315917969 254.4028625488281 192.69580078125 C 260.2262268066406 188.8899230957031 266.0311279296875 185.0470581054688 271.8619079589844 181.2485656738281 C 272.977783203125 180.5206604003906 274.0382690429688 179.3456420898438 275.608642578125 180.3839721679688 C 277.3490295410156 181.5368041992188 277.8625793457031 183.3732452392578 278.0400085449219 185.2207489013672 C 278.1508483886719 186.395751953125 277.197509765625 187.4710235595703 276.1776733398438 187.9550628662109 C 271.2854919433594 190.2755737304688 268.2518615722656 194.6172027587891 264.70458984375 198.3750610351562 C 261.2719421386719 202.0183410644531 257.7099609375 205.5729675292969 255.3414611816406 210.0993804931641 C 253.3349914550781 213.9348449707031 253.8264465332031 216.1740264892578 257.5695495605469 218.4132080078125 C 267.3798522949219 224.2846069335938 277.2160034179688 230.1190643310547 287.0374145507812 235.9757080078125 C 287.9057312011719 236.4929809570312 289.003173828125 236.9031524658203 288.9551391601562 238.159423828125 C 288.9107666015625 239.4452972412109 287.8724975585938 239.9404754638672 286.8674011230469 240.4207916259766 C 283.8633728027344 241.8470611572266 280.8740844726562 243.3102874755859 277.8589172363281 244.7144317626953 C 275.9596252441406 245.6012420654297 274.1084594726562 244.9546203613281 273.5246887207031 242.9999237060547 C 272.4272766113281 239.3159790039062 269.9183654785156 237.1506652832031 266.5299987792969 235.6763458251953 C 261.9296264648438 233.6737060546875 257.3884887695312 231.5305633544922 252.7992706298828 229.5019836425781 C 250.5083160400391 228.4895172119141 248.7088623046875 226.9634704589844 247.3565063476562 224.8757934570312 C 245.5865936279297 222.1488342285156 243.1701049804688 220.5784301757812 239.8186340332031 220.6745300292969 C 238.9724426269531 220.6967010498047 238.1225891113281 220.6634368896484 237.2801361083984 220.6191101074219 C 234.4053497314453 220.4713287353516 231.7967224121094 222.5183410644531 231.3200378417969 225.333984375 C 230.824951171875 228.2530670166016 230.3002319335938 231.172119140625 229.8753204345703 234.1022491455078 C 229.6684112548828 235.5359344482422 229.1141357421875 236.7405242919922 228.2088623046875 237.8527069091797 C 226.3539428710938 240.132568359375 224.4916381835938 240.0992889404297 222.876953125 237.5940704345703 C 222.1416320800781 236.4523010253906 221.2917785644531 235.4620208740234 220.2386779785156 234.6380157470703 C 219.0045471191406 233.6661987304688 217.6373291015625 233.1747894287109 216.0152740478516 233.4002075195312 C 213.0223083496094 233.8177947998047 210.0219116210938 234.187255859375 207.0178527832031 234.5308837890625 C 203.810546875 234.9004364013672 201.3718566894531 236.5853424072266 199.3913269042969 238.9981994628906 C 193.5235900878906 246.1333160400391 193.4977264404297 244.0197448730469 187.6300354003906 242.1056976318359 C 185.2763061523438 241.337158203125 182.9927673339844 240.3394775390625 180.624267578125 239.6152954101562 C 177.638671875 238.7026062011719 175.4807739257812 236.8292083740234 173.6628723144531 234.3720245361328 C 171.3977661132812 231.3162078857422 169.4911346435547 227.9869689941406 166.7826843261719 225.2637481689453 C 165.3674926757812 223.8448333740234 163.7194976806641 222.9284820556641 161.7537689208984 222.5663909912109 C 159.6734466552734 222.1821136474609 157.6042327880859 221.6943817138672 155.5091400146484 221.4135131835938 C 152.6454925537109 221.0255737304688 150.6169586181641 219.4847412109375 149.0945892333984 217.1457977294922 C 147.8419494628906 215.2206573486328 146.6521759033203 213.2512512207031 145.3699951171875 211.3408813476562 C 143.6629028320312 208.7987060546875 141.4864959716797 206.9105682373047 138.3309936523438 206.3526153564453 C 134.421630859375 205.66162109375 130.7414093017578 204.4977111816406 127.6671295166016 201.7412109375 C 125.9489135742188 200.1967010498047 123.7614288330078 200.1486663818359 121.7107238769531 201.2460632324219 C 119.3828582763672 202.4949798583984 116.7482757568359 203.2192535400391 114.8675384521484 205.2551574707031 C 113.5410003662109 206.6925201416016 112.7059478759766 208.2702941894531 112.8241729736328 210.3025665283203 C 112.9128570556641 211.8101501464844 112.8574523925781 213.3287963867188 112.8389587402344 214.8400726318359 C 112.8094177246094 217.1383819580078 111.2796630859375 218.3318939208984 109.0478668212891 217.8182525634766 C 92.25027465820312 213.9680633544922 75.45263671875 210.1326141357422 58.66241455078125 206.2453918457031 C 55.82832336425781 205.5913848876953 53.05337524414062 205.5470581054688 50.22299194335938 206.1936950683594 C 39.91386413574219 208.5548400878906 29.5936279296875 210.8752899169922 19.277099609375 213.2179718017578 C 16.04388427734375 213.9532470703125 14.972412109375 212.8447570800781 15.82962036132812 209.6337432861328 C 17.21527099609375 204.4348907470703 18.59353637695312 199.2359313964844 19.97177124023438 194.0370178222656 C 20.56298828125 191.8052520751953 20.88812255859375 189.5327911376953 20.83639526367188 187.223388671875 C 20.64053344726562 178.3775329589844 20.80685424804688 169.5870208740234 23.06082153320312 160.9258880615234 C 24.32449340820312 156.0780181884766 25.14108276367188 151.1082000732422 26.068603515625 146.1790161132812 C 26.35678100585938 144.6455688476562 26.45285034179688 143.0567016601562 26.46389770507812 141.4900207519531 C 26.50827026367188 135.7405700683594 26.43069458007812 129.9910583496094 26.50457763671875 124.2416152954102 C 26.54153442382812 121.3927459716797 25.94662475585938 118.7360229492188 24.7974853515625 116.1531982421875 C 21.13571166992188 107.9207000732422 17.58477783203125 99.64010620117188 13.82321166992188 91.45561218261719 C 10.89303588867188 85.07429504394531 7.0687255859375 79.17333984375 3.454986572265625 73.16893005371094 L 3.45489501953125 73.18006896972656 C -0.007354736328125 68.4947509765625 -0.029541015625 63.12220764160156 0.007415771484375 57.60551452636719 C 0.129364013671875 39.20797729492188 0.0517578125 20.81411743164062 0.055450439453125 2.416519165039062 C 0.055450439453125 0.8375244140625 0.840057373046875 0.0467987060546875 2.4091796875 0.044342041015625 C 52.9534912109375 0.0406646728515625 103.4978179931641 0.05169677734375 154.0421752929688 -3.0517578125e-05 Z" stroke="none" fill="#fff"/>
  </g>
</svg>
