<svg xmlns="http://www.w3.org/2000/svg" width="106.69" height="106.69" viewBox="0 0 106.69 106.69">
  <g id="Group_62" data-name="Group 62" transform="translate(-0.5 -0.5)">
    <g id="Group_59" data-name="Group 59" transform="translate(2.5 2.5)">
      <path id="Path_8" data-name="Path 8" d="M73.343,61.422H29.377a21.983,21.983,0,1,1,43.966,0Z" transform="translate(29.346 41.267)" fill="none" stroke="#024" stroke-linecap="round" stroke-linejoin="round" stroke-miterlimit="10" stroke-width="4"/>
      <path id="Path_9" data-name="Path 9" d="M54.326,39.318c0,5.325-4.317,11.72-9.644,11.72a7.428,7.428,0,0,1-4.04-1.267,10.69,10.69,0,0,1-2.731-2.534l-.059-.059a13.259,13.259,0,0,1-2.832-7.859,9.653,9.653,0,1,1,19.306,0Z" transform="translate(36.033 29.674)" fill="none" stroke="#024" stroke-linecap="round" stroke-linejoin="round" stroke-miterlimit="10" stroke-width="4"/>
      <path id="Path_10" data-name="Path 10" d="M46.466,34.268H2.5a21.983,21.983,0,1,1,43.966,0Z" transform="translate(-2.5 9.093)" fill="none" stroke="#024" stroke-linecap="round" stroke-linejoin="round" stroke-miterlimit="10" stroke-width="4"/>
      <path id="Path_11" data-name="Path 11" d="M27.466,12.162a13.406,13.406,0,0,1-2.832,7.861l-.061.059a10.667,10.667,0,0,1-2.753,2.534A7.4,7.4,0,0,1,17.8,23.883c-5.327,0-9.662-6.4-9.662-11.722a9.663,9.663,0,0,1,19.325,0Z" transform="translate(4.184 -2.5)" fill="none" stroke="#024" stroke-linecap="round" stroke-linejoin="round" stroke-miterlimit="10" stroke-width="4"/>
      <g id="Group_58" data-name="Group 58" transform="translate(9.393 10.751)">
        <path id="Path_12" data-name="Path 12" d="M24.13,8.6c16.9-4.188,33.582,2.954,40.366,18.755" transform="translate(13.736 -7.421)" fill="none" stroke="#024" stroke-linecap="round" stroke-linejoin="round" stroke-miterlimit="10" stroke-width="4"/>
        <path id="Path_13" data-name="Path 13" d="M58.453,13.875,52.4,29.538l-14.5-4" transform="translate(30.055 0.227)" fill="none" stroke="#024" stroke-linecap="round" stroke-linejoin="round" stroke-miterlimit="10" stroke-width="4"/>
        <path id="Path_14" data-name="Path 14" d="M42.605,16.544l4.221,9.832" transform="translate(35.627 3.39)" fill="none" stroke="#024" stroke-linecap="round" stroke-linejoin="round" stroke-miterlimit="10" stroke-width="4"/>
        <path id="Path_15" data-name="Path 15" d="M49.065,51.045C33.15,53.826,17.908,46.627,11.5,31.7" transform="translate(-1.226 21.348)" fill="none" stroke="#024" stroke-linecap="round" stroke-linejoin="round" stroke-miterlimit="10" stroke-width="4"/>
        <path id="Path_16" data-name="Path 16" d="M6.8,42.863,12.853,27.2l14.5,4" transform="translate(-6.799 16.016)" fill="none" stroke="#024" stroke-linecap="round" stroke-linejoin="round" stroke-miterlimit="10" stroke-width="4"/>
        <path id="Path_17" data-name="Path 17" d="M13.791,37.032,9.57,27.2" transform="translate(-3.516 16.016)" fill="none" stroke="#024" stroke-linecap="round" stroke-linejoin="round" stroke-miterlimit="10" stroke-width="4"/>
      </g>
    </g>
    <g id="Group_61" data-name="Group 61" transform="translate(2.5 2.5)">
      <path id="Path_18" data-name="Path 18" d="M73.343,61.422H29.377a21.983,21.983,0,1,1,43.966,0Z" transform="translate(29.346 41.267)" fill="none" stroke="#024" stroke-linecap="round" stroke-linejoin="round" stroke-miterlimit="10" stroke-width="4"/>
      <path id="Path_19" data-name="Path 19" d="M54.326,39.318c0,5.325-4.317,11.72-9.644,11.72a7.428,7.428,0,0,1-4.04-1.267,10.69,10.69,0,0,1-2.731-2.534l-.059-.059a13.259,13.259,0,0,1-2.832-7.859,9.653,9.653,0,1,1,19.306,0Z" transform="translate(36.033 29.674)" fill="none" stroke="#024" stroke-linecap="round" stroke-linejoin="round" stroke-miterlimit="10" stroke-width="4"/>
      <path id="Path_20" data-name="Path 20" d="M46.466,34.268H2.5a21.983,21.983,0,1,1,43.966,0Z" transform="translate(-2.5 9.093)" fill="none" stroke="#024" stroke-linecap="round" stroke-linejoin="round" stroke-miterlimit="10" stroke-width="4"/>
      <path id="Path_21" data-name="Path 21" d="M27.466,12.162a13.406,13.406,0,0,1-2.832,7.861l-.061.059a10.667,10.667,0,0,1-2.753,2.534A7.4,7.4,0,0,1,17.8,23.883c-5.327,0-9.662-6.4-9.662-11.722a9.663,9.663,0,0,1,19.325,0Z" transform="translate(4.184 -2.5)" fill="none" stroke="#024" stroke-linecap="round" stroke-linejoin="round" stroke-miterlimit="10" stroke-width="4"/>
      <g id="Group_60" data-name="Group 60" transform="translate(9.393 10.751)">
        <path id="Path_22" data-name="Path 22" d="M24.13,8.6c16.9-4.188,33.582,2.954,40.366,18.755" transform="translate(13.736 -7.421)" fill="none" stroke="#024" stroke-linecap="round" stroke-linejoin="round" stroke-miterlimit="10" stroke-width="4"/>
        <path id="Path_23" data-name="Path 23" d="M58.453,13.875,52.4,29.538l-14.5-4" transform="translate(30.055 0.227)" fill="none" stroke="#024" stroke-linecap="round" stroke-linejoin="round" stroke-miterlimit="10" stroke-width="4"/>
        <path id="Path_24" data-name="Path 24" d="M42.605,16.544l4.221,9.832" transform="translate(35.627 3.39)" fill="none" stroke="#024" stroke-linecap="round" stroke-linejoin="round" stroke-miterlimit="10" stroke-width="4"/>
        <path id="Path_25" data-name="Path 25" d="M49.065,51.045C33.15,53.826,17.908,46.627,11.5,31.7" transform="translate(-1.226 21.348)" fill="none" stroke="#024" stroke-linecap="round" stroke-linejoin="round" stroke-miterlimit="10" stroke-width="4"/>
        <path id="Path_26" data-name="Path 26" d="M6.8,42.863,12.853,27.2l14.5,4" transform="translate(-6.799 16.016)" fill="none" stroke="#024" stroke-linecap="round" stroke-linejoin="round" stroke-miterlimit="10" stroke-width="4"/>
        <path id="Path_27" data-name="Path 27" d="M13.791,37.032,9.57,27.2" transform="translate(-3.516 16.016)" fill="none" stroke="#024" stroke-linecap="round" stroke-linejoin="round" stroke-miterlimit="10" stroke-width="4"/>
      </g>
    </g>
  </g>
</svg>
