<svg xmlns="http://www.w3.org/2000/svg" width="114.526" height="116.714" viewBox="0 0 114.526 116.714">
  <path id="Path_2" data-name="Path 2" d="M103.69,96.668a55.983,55.983,0,0,1-86.5-.8l.067,4.184a1.824,1.824,0,0,1-1.794,1.853h-.03a1.824,1.824,0,0,1-1.823-1.794l-.161-9.986a1.824,1.824,0,0,1,2.232-1.807l9.734,2.237a1.824,1.824,0,1,1-.817,3.555l-5.071-1.166a52.335,52.335,0,0,0,81.368,1.387,1.824,1.824,0,1,1,2.8,2.341ZM27.849,20.087A52.024,52.024,0,0,1,53.5,8.936l-3.545,3.809a1.824,1.824,0,1,0,2.67,2.485l6.8-7.311a1.823,1.823,0,0,0-.449-2.836L50.254.229a1.824,1.824,0,1,0-1.773,3.188l3.658,2.034A55.984,55.984,0,0,0,8.192,79.962a1.824,1.824,0,0,0,3.426-1.252A52.32,52.32,0,0,1,27.849,20.087ZM119.056,79.4a1.824,1.824,0,0,0-2.5-.627l-3.59,2.151A55.983,55.983,0,0,0,70.409,5.612,1.824,1.824,0,0,0,69.78,9.2a52.336,52.336,0,0,1,39.483,71.16l-1.526-4.974a1.824,1.824,0,0,0-3.487,1.07l2.93,9.548a1.824,1.824,0,0,0,2.681,1.03l8.568-5.133a1.824,1.824,0,0,0,.627-2.5Zm-64.22-35.37A10.661,10.661,0,1,1,44.175,33.373,10.673,10.673,0,0,1,54.836,44.033Zm-3.648,0a7.013,7.013,0,1,0-7.013,7.013A7.021,7.021,0,0,0,51.188,44.033Zm7.805-19.047,4.229,4.229a1.824,1.824,0,0,1,.188,2.359L60.26,35.926a17.873,17.873,0,0,1,1.023,2.468l5.3.849a1.824,1.824,0,0,1,1.536,1.8v5.981a1.824,1.824,0,0,1-1.535,1.8l-5.3.849a17.915,17.915,0,0,1-1.023,2.468l3.151,4.352a1.824,1.824,0,0,1-.188,2.359l-4.229,4.229a1.824,1.824,0,0,1-2.359.188l-4.351-3.151a17.886,17.886,0,0,1-2.468,1.023l-.849,5.3a1.824,1.824,0,0,1-1.8,1.535H41.185a1.824,1.824,0,0,1-1.8-1.536l-.849-5.3a17.928,17.928,0,0,1-2.468-1.023l-4.352,3.151a1.824,1.824,0,0,1-2.359-.188l-4.229-4.229a1.824,1.824,0,0,1-.188-2.359l3.151-4.352a17.93,17.93,0,0,1-1.023-2.468l-5.3-.849a1.824,1.824,0,0,1-1.536-1.8V41.043a1.824,1.824,0,0,1,1.535-1.8l5.3-.849a17.915,17.915,0,0,1,1.023-2.468l-3.151-4.352a1.824,1.824,0,0,1,.188-2.359l4.229-4.229a1.823,1.823,0,0,1,2.359-.188l4.351,3.15a17.91,17.91,0,0,1,2.468-1.023l.849-5.3a1.824,1.824,0,0,1,1.8-1.535h5.981a1.824,1.824,0,0,1,1.8,1.535l.849,5.3a17.93,17.93,0,0,1,2.468,1.023L56.635,24.8a1.824,1.824,0,0,1,2.359.188ZM56.629,34.72l2.915-4.026-2.03-2.03-4.026,2.915a1.824,1.824,0,0,1-2,.091,14.272,14.272,0,0,0-3.744-1.553A1.823,1.823,0,0,1,46.4,28.639l-.785-4.906H42.74l-.785,4.906a1.824,1.824,0,0,1-1.349,1.479,14.264,14.264,0,0,0-3.744,1.553,1.823,1.823,0,0,1-2-.091l-4.025-2.915-2.03,2.03,2.915,4.026a1.824,1.824,0,0,1,.091,2,14.276,14.276,0,0,0-1.552,3.744,1.823,1.823,0,0,1-1.479,1.349l-4.906.785v2.871l4.906.785A1.824,1.824,0,0,1,30.261,47.6a14.269,14.269,0,0,0,1.553,3.744,1.824,1.824,0,0,1-.091,2l-2.915,4.026,2.03,2.03,4.026-2.915a1.824,1.824,0,0,1,2-.091,14.278,14.278,0,0,0,3.744,1.553,1.824,1.824,0,0,1,1.349,1.479l.785,4.905h2.871l.785-4.906a1.824,1.824,0,0,1,1.349-1.479A14.28,14.28,0,0,0,51.489,56.4a1.823,1.823,0,0,1,2,.091L57.514,59.4l2.03-2.03-2.915-4.026a1.824,1.824,0,0,1-.091-2A14.278,14.278,0,0,0,58.091,47.6a1.823,1.823,0,0,1,1.479-1.349l4.906-.785V42.6l-4.906-.785a1.824,1.824,0,0,1-1.479-1.349,14.26,14.26,0,0,0-1.553-3.744,1.823,1.823,0,0,1,.091-2ZM93.929,67.7l-2.684,3.707a15.948,15.948,0,0,1,.806,1.943l4.518.723a1.824,1.824,0,0,1,1.535,1.8v5.246a1.824,1.824,0,0,1-1.535,1.8l-4.518.723a15.874,15.874,0,0,1-.806,1.944l2.684,3.707a1.824,1.824,0,0,1-.188,2.359l-3.71,3.71a1.824,1.824,0,0,1-2.359.188l-3.707-2.684a15.926,15.926,0,0,1-1.943.806L81.3,98.191a1.824,1.824,0,0,1-1.8,1.535H74.251a1.824,1.824,0,0,1-1.8-1.535l-.723-4.518a15.911,15.911,0,0,1-1.944-.806l-3.707,2.684a1.824,1.824,0,0,1-2.359-.188l-3.71-3.71a1.824,1.824,0,0,1-.188-2.359L62.5,85.587a15.937,15.937,0,0,1-.806-1.943l-4.519-.723a1.824,1.824,0,0,1-1.535-1.8V75.873a1.824,1.824,0,0,1,1.535-1.8l4.519-.723a15.94,15.94,0,0,1,.806-1.943L59.819,67.7a1.824,1.824,0,0,1,.188-2.359l3.71-3.71a1.823,1.823,0,0,1,2.359-.188l3.707,2.684a15.945,15.945,0,0,1,1.944-.806L72.45,58.8a1.824,1.824,0,0,1,1.8-1.535H79.5A1.824,1.824,0,0,1,81.3,58.8l.723,4.518a15.871,15.871,0,0,1,1.944.806l3.707-2.684a1.824,1.824,0,0,1,2.359.188l3.71,3.71a1.822,1.822,0,0,1,.188,2.359Zm-3.587,9.071a1.824,1.824,0,0,1-1.478-1.349,12.291,12.291,0,0,0-1.338-3.226,1.824,1.824,0,0,1,.091-2l2.445-3.377-1.511-1.511-3.377,2.445a1.824,1.824,0,0,1-2,.091,12.291,12.291,0,0,0-3.225-1.338A1.824,1.824,0,0,1,78.6,65.028l-.659-4.114H75.806l-.659,4.114A1.824,1.824,0,0,1,73.8,66.506a12.288,12.288,0,0,0-3.225,1.338,1.824,1.824,0,0,1-2-.091L65.2,65.307l-1.511,1.511,2.445,3.377a1.824,1.824,0,0,1,.091,2,12.292,12.292,0,0,0-1.337,3.226,1.824,1.824,0,0,1-1.479,1.349l-4.115.659v2.136l4.115.659a1.824,1.824,0,0,1,1.478,1.349A12.3,12.3,0,0,0,66.222,84.8a1.824,1.824,0,0,1-.091,2l-2.445,3.377L65.2,91.684l3.377-2.445a1.824,1.824,0,0,1,2-.091A12.291,12.291,0,0,0,73.8,90.485a1.824,1.824,0,0,1,1.349,1.479l.659,4.115h2.136l.659-4.115a1.824,1.824,0,0,1,1.349-1.479,12.282,12.282,0,0,0,3.225-1.338,1.823,1.823,0,0,1,2,.091l3.377,2.445,1.511-1.511L87.617,86.8a1.824,1.824,0,0,1-.091-2,12.287,12.287,0,0,0,1.338-3.225,1.824,1.824,0,0,1,1.479-1.349l4.114-.659V77.428ZM86.45,78.5a9.576,9.576,0,1,1-9.576-9.576A9.586,9.586,0,0,1,86.45,78.5Zm-3.648,0a5.928,5.928,0,1,0-5.928,5.928A5.935,5.935,0,0,0,82.8,78.5Z" transform="translate(-4.79 0.001)" fill="#024"/>
</svg>
