<svg xmlns="http://www.w3.org/2000/svg" width="119.72" height="37.2" viewBox="0 0 119.72 37.2">
  <g id="KH_Submark_1_RGB" transform="translate(-17.18 -14.75)">
    <rect id="Rectangle_92" data-name="Rectangle 92" width="1.522" height="37.2" transform="translate(65.856 14.75)" fill="#024"/>
    <g id="Group_239" data-name="Group 239" transform="translate(17.18 20.203)">
      <path id="Path_179" data-name="Path 179" d="M95.49,36.18h4.679V46.8h12.29V36.18h4.679V62.469h-4.679V50.811h-12.29V62.469H95.49Z" transform="translate(-75.564 -36.18)" fill="#024"/>
      <path id="Path_180" data-name="Path 180" d="M17.18,36.18h4.679V47.544h.112L32.963,36.18h6.313L26.986,48.322l14.8,14.147H35.215L21.971,49.287h-.112V62.469H17.18Z" transform="translate(-17.18 -36.18)" fill="#68be29"/>
    </g>
    <g id="Group_242" data-name="Group 242" transform="translate(73.064 20.2)">
      <g id="Group_240" data-name="Group 240" transform="translate(0 0)">
        <path id="Path_181" data-name="Path 181" d="M236.81,47.208l1.415-.316V37.579l-1.415-.316V36.18h5.242v1.084l-1.4.316v9.315l1.4.316v1.084H236.81V47.21Z" transform="translate(-236.81 -36.177)" fill="#024"/>
        <path id="Path_182" data-name="Path 182" d="M263.71,47.226l1.415-.331V37.579l-1.415-.316V36.18h4.282l4.771,8.214h.087v-6.8l-1.415-.331V36.18h4.3v1.066l-1.26.331V48.289H272.43l-5.593-9.664h-.069v8.267l1.433.331v1.066H263.71V47.223Z" transform="translate(-256.865 -36.177)" fill="#024"/>
        <path id="Path_183" data-name="Path 183" d="M314.3,47.979V46.6a5.38,5.38,0,0,0,1.695.262c.995,0,1.644-.366,1.644-1.766V37.579l-1.415-.316V36.18h5.226v1.084l-1.379.316v7.707c0,2.046-1.224,3.163-3.5,3.163a4.807,4.807,0,0,1-2.272-.471Z" transform="translate(-294.583 -36.177)" fill="#024"/>
        <path id="Path_184" data-name="Path 184" d="M349.274,44.526V37.569l-1.364-.316V36.17h5.173v1.084l-1.382.3v6.695c0,1.957.98,2.761,2.639,2.761s2.639-.8,2.639-2.761V37.569l-1.382-.3v-1.1h4.214v1.084l-1.224.316V44.35c0,2.5-1.5,4.16-4.58,4.16s-4.735-1.572-4.735-3.985Z" transform="translate(-319.641 -36.17)" fill="#024"/>
        <path id="Path_185" data-name="Path 185" d="M400.52,47.215l1.433-.316V37.6l-1.4-.331V36.19h5.506c3.041,0,4.387,1.257,4.387,3.389a3.013,3.013,0,0,1-2.323,2.936v.071l2.534,4.333,1.12.316V48.3h-3.005l-2.919-5.209h-1.468V46.9l1.328.316V48.3h-5.191V47.218Zm5.384-5.366c1.572,0,2.079-1.013,2.079-2.237,0-1.415-.628-2.028-2.132-2.028h-1.468v4.265Z" transform="translate(-358.864 -36.185)" fill="#024"/>
        <path id="Path_186" data-name="Path 186" d="M447.7,47.2l1.433-.316V43.109l-3.356-5.539-1.013-.316V36.17h4.684v1.084l-1.1.3,2.412,4.175h.069l2.237-4.175-1.153-.3V36.17h3.776v1.084l-.995.316-3.127,5.522v3.791l1.4.316v1.084H447.7V47.2Z" transform="translate(-391.848 -36.17)" fill="#024"/>
      </g>
      <g id="Group_241" data-name="Group 241" transform="translate(0 14.178)">
        <path id="Path_187" data-name="Path 187" d="M236.81,102.92l1.415-.316V93.289l-1.415-.316V91.89h5.366v1.084l-1.537.3v9.384h3.529l.857-2.743h1.239L246.039,104H236.81v-1.084Z" transform="translate(-236.81 -91.89)" fill="#024"/>
        <path id="Path_188" data-name="Path 188" d="M279.22,102.92l1.12-.3,3.791-10.712h2.15l3.7,10.712,1.12.3v1.1h-5.033v-1.084l1.293-.316-.768-2.394h-3.773l-.8,2.394,1.328.316v1.084h-4.125v-1.1Zm3.985-3.88h3.023l-1.433-4.473h-.086Z" transform="translate(-268.429 -91.905)" fill="#024"/>
        <path id="Path_189" data-name="Path 189" d="M324.09,93.3l-.98-.316V91.9h4.649v1.084l-1.206.316,1.87,7.585h.089l2.43-8.982h1.608L335,100.8h.069l1.835-7.5-1.242-.316V91.9h4.053v1.084l-1.1.316-2.8,10.712h-2.165L331.43,95.6h-.071l-2.308,8.407h-2.168l-2.8-10.712Z" transform="translate(-301.151 -91.897)" fill="#024"/>
      </g>
    </g>
  </g>
</svg>
