<svg xmlns="http://www.w3.org/2000/svg" width="87.733" height="109.667" viewBox="0 0 87.733 109.667">
  <g id="Group_57" data-name="Group 57" transform="translate(-4 -1)">
    <path id="Path_4" data-name="Path 4" d="M84.594,105.355H7.828a1.828,1.828,0,1,1,0-3.656H82.767V4.828a1.828,1.828,0,1,1,3.656,0v98.7A1.828,1.828,0,0,1,84.594,105.355Z" transform="translate(5.311 5.312)" fill="#024"/>
    <path id="Path_5" data-name="Path 5" d="M82.594,103.355H5.828A1.828,1.828,0,0,1,4,101.528V24.761a1.828,1.828,0,1,1,3.656,0V99.7H80.767V4.656H35.072a1.828,1.828,0,0,1,0-3.656H82.594a1.828,1.828,0,0,1,1.828,1.828v98.7A1.828,1.828,0,0,1,82.594,103.355Z" transform="translate(0 0)" fill="#024"/>
    <path id="Path_6" data-name="Path 6" d="M27.7,26.589H5.847a1.83,1.83,0,0,1-1.294-3.118L26.41,1.538a1.828,1.828,0,0,1,3.122,1.29V24.762A1.828,1.828,0,0,1,27.7,26.589ZM10.252,22.934H25.876V7.251Zm6.485,29.244H45.982a1.828,1.828,0,0,0,0-3.656H16.737a1.828,1.828,0,0,0,0,3.656Zm0,7.311H35.015a1.828,1.828,0,1,0,0-3.656H16.737a1.828,1.828,0,1,0,0,3.656Zm25.589,0H71.571a1.828,1.828,0,0,0,0-3.656H42.326a1.828,1.828,0,1,0,0,3.656ZM16.737,74.112H42.326a1.828,1.828,0,1,0,0-3.656H16.737a1.828,1.828,0,1,0,0,3.656Zm0-7.311H53.293a1.828,1.828,0,1,0,0-3.656H16.737a1.828,1.828,0,1,0,0,3.656Zm43.867,0H71.571a1.828,1.828,0,0,0,0-3.656H60.6a1.828,1.828,0,1,0,0,3.656ZM53.293,52.178H71.571a1.828,1.828,0,0,0,0-3.656H53.293a1.828,1.828,0,0,0,0,3.656ZM24.048,37.556H71.571a1.828,1.828,0,0,0,0-3.656H24.048a1.828,1.828,0,0,0,0,3.656Z" transform="translate(0.057)" fill="#024"/>
    <g id="Group_56" data-name="Group 56" transform="translate(14.967 41.212)">
      <path id="Path_7" data-name="Path 7" d="M8.828,15.656H63.661a1.828,1.828,0,0,0,0-3.656H8.828a1.828,1.828,0,1,0,0,3.656Z" transform="translate(-7 -12)" fill="#024"/>
    </g>
  </g>
</svg>
