<svg id="KH_Submark_1_Stacked_Green_White_RGB" xmlns="http://www.w3.org/2000/svg" width="61.553" height="71.292" viewBox="0 0 61.553 71.292">
  <rect id="Rectangle_89" data-name="Rectangle 89" width="61.553" height="1.969" transform="translate(0 40.343)" fill="#fff"/>
  <g id="Group_227" data-name="Group 227" transform="translate(3.875 0)">
    <path id="Path_146" data-name="Path 146" d="M103.52,17.47h6.055V31.21h15.9V17.47h6.055V51.488h-6.055V36.4h-15.9V51.488H103.52Z" transform="translate(-77.733 -17.47)" fill="#fff"/>
    <path id="Path_147" data-name="Path 147" d="M25.2,17.47h6.055v14.7H31.4l14.224-14.7h8.169l-15.9,15.712L57.042,51.488h-8.5L31.4,34.43h-.145V51.488H25.2Z" transform="translate(-25.2 -17.47)" fill="#68be29"/>
  </g>
  <g id="Group_230" data-name="Group 230" transform="translate(2.657 48.633)">
    <g id="Group_228" data-name="Group 228">
      <path id="Path_148" data-name="Path 148" d="M21.5,174.692l1.218-.27V166.4l-1.218-.27v-.935h4.517v.935l-1.205.27v8.027l1.205.27v.935H21.5Z" transform="translate(-21.5 -165.187)" fill="#fff"/>
      <path id="Path_149" data-name="Path 149" d="M39.42,174.7l1.218-.286v-8.027l-1.218-.27v-.935h3.691l4.112,7.079H47.3V166.4l-1.218-.286v-.935h3.7v.919l-1.083.286v9.232H46.94l-4.82-8.33h-.059v7.125l1.235.286v.919H39.423V174.7Z" transform="translate(-33.52 -165.18)" fill="#fff"/>
      <path id="Path_150" data-name="Path 150" d="M73.11,175.354v-1.189a4.6,4.6,0,0,0,1.462.227c.859,0,1.416-.316,1.416-1.521V166.4l-1.218-.27v-.935h4.5v.935l-1.189.27v6.641c0,1.761-1.054,2.726-3.013,2.726a4.154,4.154,0,0,1-1.959-.4Z" transform="translate(-56.117 -165.187)" fill="#fff"/>
      <path id="Path_151" data-name="Path 151" d="M96.675,172.387V166.4l-1.175-.27v-.935h4.458v.935l-1.189.257v5.768c0,1.686.843,2.38,2.275,2.38s2.275-.691,2.275-2.38V166.4l-1.189-.257v-.948h3.632v.935l-1.054.27v5.844c0,2.153-1.294,3.586-3.944,3.586s-4.083-1.357-4.083-3.434Z" transform="translate(-71.136 -165.187)" fill="#fff"/>
      <path id="Path_152" data-name="Path 152" d="M130.53,174.685l1.235-.27V166.4l-1.205-.286v-.935H135.3c2.621,0,3.78,1.083,3.78,2.92a2.594,2.594,0,0,1-2,2.529v.059l2.183,3.734.965.27v.919h-2.591l-2.515-4.488h-1.264v3.283l1.146.27v.935H130.53v-.935Zm4.639-4.623c1.357,0,1.791-.873,1.791-1.929,0-1.218-.543-1.748-1.837-1.748h-1.264v3.674h1.31Z" transform="translate(-94.632 -165.18)" fill="#fff"/>
      <path id="Path_153" data-name="Path 153" d="M162.529,174.692l1.235-.27v-3.253l-2.891-4.774-.873-.27v-.935h4.037v.935l-.948.257,2.078,3.6h.059l1.929-3.6-.994-.257v-.935h3.253v.935l-.859.27-2.7,4.758v3.269l1.205.27v.935h-4.534v-.935Z" transform="translate(-114.399 -165.187)" fill="#fff"/>
    </g>
    <g id="Group_229" data-name="Group 229" transform="translate(0 12.218)">
      <path id="Path_154" data-name="Path 154" d="M21.5,211.8l1.218-.27v-8.027l-1.218-.27V202.3h4.623v.935l-1.324.257v8.086h3.042l.738-2.364h1.07l-.194,3.523H21.5V211.8Z" transform="translate(-21.5 -202.297)" fill="#fff"/>
      <path id="Path_155" data-name="Path 155" d="M49.75,211.779l.965-.257,3.269-9.232h1.854l3.194,9.232.965.257v.948H55.66v-.935l1.113-.27-.662-2.064H52.858l-.691,2.064,1.146.27v.935H49.76v-.948Zm3.434-3.345h2.6l-1.235-3.856h-.076l-1.294,3.856Z" transform="translate(-40.449 -202.29)" fill="#fff"/>
      <path id="Path_156" data-name="Path 156" d="M79.823,203.5l-.843-.27v-.935h4.007v.935l-1.04.27,1.61,6.536h.076l2.094-7.741h1.386l2.107,7.665h.059l1.58-6.46-1.07-.27v-.935h3.493v.935l-.948.27-2.41,9.232H88.057l-1.913-7.243h-.059L84.1,212.727H82.23L79.82,203.5Z" transform="translate(-60.055 -202.29)" fill="#fff"/>
    </g>
  </g>
</svg>
