<svg fill="none" height="27" width="27" viewBox="0 0 30 30" xmlns="http://www.w3.org/2000/svg"><g clip-rule="evenodd" fill="#000" fill-rule="evenodd"><path d="m7 14.8539c0 .4694.3806.85.85.85h13.2775c.4694 0 .85-.3806.85-.85 0-.4695-.3806-.85-.85-.85h-13.2775c-.4694 0-.85.3805-.85.85z"/><path d="m17.2099 20.4353c.3319.3319.8701.3319 1.202 0l4.2949-4.2949c.7225-.7225.7225-1.8938 0-2.6163l-4.2752-4.27517c-.3319-.33191-.8701-.33191-1.2021 0-.3319.33199-.3319.87017 0 1.20207l4.2752 4.2752c.0586.0586.0586.1536 0 .2121l-4.2948 4.2949c-.332.3319-.332.8701 0 1.2021z"/></g></svg>